<mxfile host="app.diagrams.net" agent="Mozilla/5.0 (Macintosh; Intel Mac OS X 10_15_7) AppleWebKit/537.36 (KHTML, like Gecko) Chrome/130.0.0.0 Safari/537.36" version="25.0.3">
  <diagram name="第 1 页" id="F5VYigaGw1SXEJX05_Oq">
    <mxGraphModel dx="1062" dy="501" grid="0" gridSize="10" guides="1" tooltips="1" connect="1" arrows="1" fold="1" page="1" pageScale="1" pageWidth="827" pageHeight="1169" math="0" shadow="0">
      <root>
        <mxCell id="0" />
        <mxCell id="1" parent="0" />
        <mxCell id="aSUJhLrz8YBLQvyZwgPZ-1" value="kube-apiserver" style="rounded=0;whiteSpace=wrap;html=1;horizontal=0;verticalAlign=top;" parent="1" vertex="1">
          <mxGeometry x="120" y="240" width="490" height="90" as="geometry" />
        </mxCell>
        <mxCell id="aSUJhLrz8YBLQvyZwgPZ-2" value="ConfigMap" style="rounded=0;whiteSpace=wrap;html=1;fillColor=#dae8fc;strokeColor=#6c8ebf;" parent="1" vertex="1">
          <mxGeometry x="310" y="260" width="110" height="50" as="geometry" />
        </mxCell>
        <mxCell id="aSUJhLrz8YBLQvyZwgPZ-3" value="Node" style="rounded=0;whiteSpace=wrap;html=1;fillColor=#dae8fc;strokeColor=#6c8ebf;" parent="1" vertex="1">
          <mxGeometry x="150" y="260" width="130" height="50" as="geometry" />
        </mxCell>
        <mxCell id="aSUJhLrz8YBLQvyZwgPZ-4" value="Deployment/RS/RC" style="rounded=0;whiteSpace=wrap;html=1;fillColor=#dae8fc;strokeColor=#6c8ebf;" parent="1" vertex="1">
          <mxGeometry x="460" y="260" width="110" height="50" as="geometry" />
        </mxCell>
        <mxCell id="aSUJhLrz8YBLQvyZwgPZ-5" value="Cluster-Proportional-AutoScaler" style="rounded=1;whiteSpace=wrap;html=1;horizontal=0;verticalAlign=top;arcSize=0;" parent="1" vertex="1">
          <mxGeometry x="120" y="400" width="495" height="160" as="geometry" />
        </mxCell>
        <mxCell id="aSUJhLrz8YBLQvyZwgPZ-7" value="1. Query Nodes" style="text;html=1;align=center;verticalAlign=middle;whiteSpace=wrap;rounded=0;" parent="1" vertex="1">
          <mxGeometry x="190" y="350" width="50" height="30" as="geometry" />
        </mxCell>
        <mxCell id="aSUJhLrz8YBLQvyZwgPZ-8" value="" style="rounded=0;orthogonalLoop=1;jettySize=auto;html=1;entryX=0.5;entryY=1;entryDx=0;entryDy=0;exitX=0.5;exitY=0;exitDx=0;exitDy=0;" parent="1" source="aSUJhLrz8YBLQvyZwgPZ-10" target="aSUJhLrz8YBLQvyZwgPZ-2" edge="1">
          <mxGeometry relative="1" as="geometry">
            <mxPoint x="260" y="410" as="sourcePoint" />
            <mxPoint x="225" y="320" as="targetPoint" />
          </mxGeometry>
        </mxCell>
        <mxCell id="aSUJhLrz8YBLQvyZwgPZ-9" value="2. Scaling Rules" style="text;html=1;align=center;verticalAlign=middle;whiteSpace=wrap;rounded=0;" parent="1" vertex="1">
          <mxGeometry x="365" y="350" width="70" height="30" as="geometry" />
        </mxCell>
        <mxCell id="aSUJhLrz8YBLQvyZwgPZ-20" value="" style="rounded=0;orthogonalLoop=1;jettySize=auto;html=1;entryX=0.5;entryY=0;entryDx=0;entryDy=0;" parent="1" source="aSUJhLrz8YBLQvyZwgPZ-10" target="aSUJhLrz8YBLQvyZwgPZ-14" edge="1">
          <mxGeometry relative="1" as="geometry" />
        </mxCell>
        <mxCell id="aSUJhLrz8YBLQvyZwgPZ-10" value="k8sC&lt;span style=&quot;background-color: initial;&quot;&gt;lient&lt;/span&gt;" style="rounded=0;whiteSpace=wrap;html=1;fillColor=#dae8fc;strokeColor=#6c8ebf;" parent="1" vertex="1">
          <mxGeometry x="165" y="420" width="400" height="30" as="geometry" />
        </mxCell>
        <mxCell id="aSUJhLrz8YBLQvyZwgPZ-6" value="" style="rounded=0;orthogonalLoop=1;jettySize=auto;html=1;entryX=0.5;entryY=1;entryDx=0;entryDy=0;exitX=0.25;exitY=0;exitDx=0;exitDy=0;" parent="1" source="aSUJhLrz8YBLQvyZwgPZ-10" target="aSUJhLrz8YBLQvyZwgPZ-3" edge="1">
          <mxGeometry relative="1" as="geometry" />
        </mxCell>
        <mxCell id="aSUJhLrz8YBLQvyZwgPZ-14" value="controller" style="rounded=1;whiteSpace=wrap;html=1;horizontal=0;verticalAlign=top;fillColor=#f5f5f5;fontColor=#333333;strokeColor=#666666;" parent="1" vertex="1">
          <mxGeometry x="165" y="480" width="400" height="70" as="geometry" />
        </mxCell>
        <mxCell id="aSUJhLrz8YBLQvyZwgPZ-11" value="linearController" style="rounded=0;whiteSpace=wrap;html=1;fillColor=#dae8fc;strokeColor=#6c8ebf;" parent="1" vertex="1">
          <mxGeometry x="200" y="495" width="135" height="40" as="geometry" />
        </mxCell>
        <mxCell id="aSUJhLrz8YBLQvyZwgPZ-12" value="ladderController" style="rounded=0;whiteSpace=wrap;html=1;fillColor=#dae8fc;strokeColor=#6c8ebf;" parent="1" vertex="1">
          <mxGeometry x="390" y="495" width="135" height="40" as="geometry" />
        </mxCell>
        <mxCell id="aSUJhLrz8YBLQvyZwgPZ-16" value="" style="rounded=0;orthogonalLoop=1;jettySize=auto;html=1;entryX=0.5;entryY=1;entryDx=0;entryDy=0;exitX=0.75;exitY=0;exitDx=0;exitDy=0;" parent="1" source="aSUJhLrz8YBLQvyZwgPZ-10" target="aSUJhLrz8YBLQvyZwgPZ-4" edge="1">
          <mxGeometry relative="1" as="geometry">
            <mxPoint x="250" y="430" as="sourcePoint" />
            <mxPoint x="375" y="320" as="targetPoint" />
          </mxGeometry>
        </mxCell>
        <mxCell id="aSUJhLrz8YBLQvyZwgPZ-18" value="3.GetExpectedReplicas" style="text;html=1;align=center;verticalAlign=middle;whiteSpace=wrap;rounded=0;" parent="1" vertex="1">
          <mxGeometry x="365" y="450" width="160" height="25" as="geometry" />
        </mxCell>
        <mxCell id="aSUJhLrz8YBLQvyZwgPZ-21" value="4.Update&lt;div&gt;Replicas&lt;/div&gt;" style="text;html=1;align=center;verticalAlign=middle;whiteSpace=wrap;rounded=0;" parent="1" vertex="1">
          <mxGeometry x="490" y="352.5" width="80" height="25" as="geometry" />
        </mxCell>
        <mxCell id="EStw5bXizqeQKJaaaStb-37" value="" style="rounded=0;orthogonalLoop=1;jettySize=auto;html=1;" parent="1" source="EStw5bXizqeQKJaaaStb-32" target="EStw5bXizqeQKJaaaStb-36" edge="1">
          <mxGeometry relative="1" as="geometry" />
        </mxCell>
        <mxCell id="EStw5bXizqeQKJaaaStb-32" value="GetAsgNodes" style="rounded=0;whiteSpace=wrap;html=1;" parent="1" vertex="1">
          <mxGeometry x="159" y="848" width="90" height="31" as="geometry" />
        </mxCell>
        <mxCell id="EStw5bXizqeQKJaaaStb-46" value="asgCache" style="swimlane;fontStyle=0;childLayout=stackLayout;horizontal=1;startSize=26;fillColor=#d5e8d4;horizontalStack=0;resizeParent=1;resizeParentMax=0;resizeLast=0;collapsible=1;marginBottom=0;whiteSpace=wrap;html=1;strokeColor=#82b366;" parent="1" vertex="1" collapsed="1">
          <mxGeometry x="237" y="788" width="81" height="26" as="geometry">
            <mxRectangle x="458" y="852" width="140" height="78" as="alternateBounds" />
          </mxGeometry>
        </mxCell>
        <mxCell id="EStw5bXizqeQKJaaaStb-47" value="+ asgToInstances: map" style="text;strokeColor=none;fillColor=none;align=left;verticalAlign=top;spacingLeft=4;spacingRight=4;overflow=hidden;rotatable=0;points=[[0,0.5],[1,0.5]];portConstraint=eastwest;whiteSpace=wrap;html=1;" parent="EStw5bXizqeQKJaaaStb-46" vertex="1">
          <mxGeometry y="26" width="140" height="26" as="geometry" />
        </mxCell>
        <mxCell id="EStw5bXizqeQKJaaaStb-48" value="+&amp;nbsp;&lt;span style=&quot;text-align: center; text-wrap: nowrap;&quot;&gt;instanceStatus&lt;/span&gt;: map" style="text;strokeColor=none;fillColor=none;align=left;verticalAlign=top;spacingLeft=4;spacingRight=4;overflow=hidden;rotatable=0;points=[[0,0.5],[1,0.5]];portConstraint=eastwest;whiteSpace=wrap;html=1;" parent="EStw5bXizqeQKJaaaStb-46" vertex="1">
          <mxGeometry y="52" width="140" height="26" as="geometry" />
        </mxCell>
        <mxCell id="EStw5bXizqeQKJaaaStb-55" value="" style="endArrow=classicThin;html=1;rounded=0;entryX=0.5;entryY=0;entryDx=0;entryDy=0;exitX=0;exitY=0.5;exitDx=0;exitDy=0;dashed=1;endFill=1;edgeStyle=orthogonalEdgeStyle;" parent="1" source="EStw5bXizqeQKJaaaStb-46" target="EStw5bXizqeQKJaaaStb-32" edge="1">
          <mxGeometry width="50" height="50" relative="1" as="geometry">
            <mxPoint x="383" y="803" as="sourcePoint" />
            <mxPoint x="433" y="753" as="targetPoint" />
          </mxGeometry>
        </mxCell>
        <mxCell id="EStw5bXizqeQKJaaaStb-88" value="&lt;span style=&quot;font-size: 10px; text-align: left; text-wrap: wrap; background-color: rgb(251, 251, 251);&quot;&gt;asgNodes&lt;/span&gt;" style="edgeLabel;html=1;align=center;verticalAlign=middle;resizable=0;points=[];" parent="EStw5bXizqeQKJaaaStb-55" vertex="1" connectable="0">
          <mxGeometry x="0.2063" relative="1" as="geometry">
            <mxPoint x="-3" as="offset" />
          </mxGeometry>
        </mxCell>
        <mxCell id="EStw5bXizqeQKJaaaStb-56" value="" style="endArrow=classicThin;html=1;rounded=0;entryX=0.5;entryY=0;entryDx=0;entryDy=0;exitX=1;exitY=0.5;exitDx=0;exitDy=0;dashed=1;endFill=1;edgeStyle=orthogonalEdgeStyle;" parent="1" source="EStw5bXizqeQKJaaaStb-46" target="EStw5bXizqeQKJaaaStb-36" edge="1">
          <mxGeometry width="50" height="50" relative="1" as="geometry">
            <mxPoint x="268" y="807" as="sourcePoint" />
            <mxPoint x="214" y="858" as="targetPoint" />
          </mxGeometry>
        </mxCell>
        <mxCell id="EStw5bXizqeQKJaaaStb-87" value="&lt;span style=&quot;font-size: 10px; text-align: left; text-wrap: wrap; background-color: rgb(251, 251, 251);&quot;&gt;instanceStatus&lt;/span&gt;" style="edgeLabel;html=1;align=center;verticalAlign=middle;resizable=0;points=[];" parent="EStw5bXizqeQKJaaaStb-56" vertex="1" connectable="0">
          <mxGeometry x="0.1789" y="-2" relative="1" as="geometry">
            <mxPoint x="2" y="4" as="offset" />
          </mxGeometry>
        </mxCell>
        <mxCell id="EStw5bXizqeQKJaaaStb-64" value="" style="rounded=0;orthogonalLoop=1;jettySize=auto;html=1;entryX=0.5;entryY=0;entryDx=0;entryDy=0;dashed=1;exitX=0.5;exitY=1;exitDx=0;exitDy=0;endArrow=classicThin;endFill=1;" parent="1" source="EStw5bXizqeQKJaaaStb-85" target="EStw5bXizqeQKJaaaStb-46" edge="1">
          <mxGeometry relative="1" as="geometry">
            <mxPoint x="276.82659999999987" y="759.0992115942029" as="sourcePoint" />
          </mxGeometry>
        </mxCell>
        <mxCell id="EStw5bXizqeQKJaaaStb-69" value="Node" style="swimlane;horizontal=0;whiteSpace=wrap;html=1;" parent="1" vertex="1">
          <mxGeometry x="122" y="830" width="412" height="67" as="geometry" />
        </mxCell>
        <mxCell id="EStw5bXizqeQKJaaaStb-34" value="GetInstanceStatus" style="rounded=0;whiteSpace=wrap;html=1;" parent="EStw5bXizqeQKJaaaStb-69" vertex="1">
          <mxGeometry x="179" y="27" width="109" height="31" as="geometry" />
        </mxCell>
        <mxCell id="EStw5bXizqeQKJaaaStb-35" value="GetInstanceStatus" style="rounded=0;whiteSpace=wrap;html=1;" parent="EStw5bXizqeQKJaaaStb-69" vertex="1">
          <mxGeometry x="176" y="23" width="109" height="31" as="geometry" />
        </mxCell>
        <mxCell id="EStw5bXizqeQKJaaaStb-36" value="GetInstanceStatus" style="rounded=0;whiteSpace=wrap;html=1;" parent="EStw5bXizqeQKJaaaStb-69" vertex="1">
          <mxGeometry x="173" y="18" width="109" height="31" as="geometry" />
        </mxCell>
        <mxCell id="EStw5bXizqeQKJaaaStb-60" value="instances" style="shape=ext;margin=3;double=1;whiteSpace=wrap;html=1;align=center;fillColor=#fff2cc;strokeColor=#d6b656;" parent="EStw5bXizqeQKJaaaStb-69" vertex="1">
          <mxGeometry x="311" y="13.5" width="78" height="40" as="geometry" />
        </mxCell>
        <mxCell id="EStw5bXizqeQKJaaaStb-39" value="" style="rounded=0;orthogonalLoop=1;jettySize=auto;html=1;exitX=1;exitY=0.5;exitDx=0;exitDy=0;entryX=0;entryY=0.5;entryDx=0;entryDy=0;" parent="EStw5bXizqeQKJaaaStb-69" source="EStw5bXizqeQKJaaaStb-36" target="EStw5bXizqeQKJaaaStb-60" edge="1">
          <mxGeometry relative="1" as="geometry">
            <mxPoint x="339" y="33.23000000000002" as="sourcePoint" />
            <mxPoint x="332" y="33" as="targetPoint" />
          </mxGeometry>
        </mxCell>
        <mxCell id="EStw5bXizqeQKJaaaStb-79" value="" style="endArrow=classicThin;html=1;rounded=0;exitX=0.5;exitY=0;exitDx=0;exitDy=0;endFill=1;dashed=1;entryX=0.532;entryY=1.043;entryDx=0;entryDy=0;entryPerimeter=0;" parent="1" source="EStw5bXizqeQKJaaaStb-60" target="EStw5bXizqeQKJaaaStb-83" edge="1">
          <mxGeometry width="50" height="50" relative="1" as="geometry">
            <mxPoint x="556" y="844" as="sourcePoint" />
            <mxPoint x="472" y="763.81" as="targetPoint" />
          </mxGeometry>
        </mxCell>
        <mxCell id="EStw5bXizqeQKJaaaStb-81" value="&lt;font style=&quot;font-size: 10px;&quot;&gt;ClusterStateRegistry&lt;/font&gt;" style="swimlane;fontStyle=0;childLayout=stackLayout;horizontal=1;startSize=30;horizontalStack=0;resizeParent=1;resizeParentMax=0;resizeLast=0;collapsible=1;marginBottom=0;whiteSpace=wrap;html=1;fillColor=#d5e8d4;strokeColor=#82b366;" parent="1" vertex="1">
          <mxGeometry x="401" y="745" width="133" height="67" as="geometry">
            <mxRectangle x="379" y="1184" width="127" height="30" as="alternateBounds" />
          </mxGeometry>
        </mxCell>
        <mxCell id="EStw5bXizqeQKJaaaStb-82" value="&lt;span style=&quot;text-align: center;&quot;&gt;updateClusterState()&lt;/span&gt;" style="text;strokeColor=none;fillColor=none;align=left;verticalAlign=middle;spacingLeft=4;spacingRight=4;overflow=hidden;points=[[0,0.5],[1,0.5]];portConstraint=eastwest;rotatable=0;whiteSpace=wrap;html=1;" parent="EStw5bXizqeQKJaaaStb-81" vertex="1">
          <mxGeometry y="30" width="133" height="20" as="geometry" />
        </mxCell>
        <mxCell id="EStw5bXizqeQKJaaaStb-83" value="&lt;span style=&quot;text-align: center;&quot;&gt;backoffNodeGroup()&lt;/span&gt;" style="text;strokeColor=none;fillColor=none;align=left;verticalAlign=middle;spacingLeft=4;spacingRight=4;overflow=hidden;points=[[0,0.5],[1,0.5]];portConstraint=eastwest;rotatable=0;whiteSpace=wrap;html=1;" parent="EStw5bXizqeQKJaaaStb-81" vertex="1">
          <mxGeometry y="50" width="133" height="17" as="geometry" />
        </mxCell>
        <mxCell id="EStw5bXizqeQKJaaaStb-85" value="Refresh" style="rounded=0;whiteSpace=wrap;html=1;fillColor=#dae8fc;strokeColor=#6c8ebf;" parent="1" vertex="1">
          <mxGeometry x="237" y="745" width="81" height="27" as="geometry" />
        </mxCell>
        <mxCell id="EStw5bXizqeQKJaaaStb-92" value="gceCache" style="swimlane;fontStyle=0;childLayout=stackLayout;horizontal=1;startSize=26;fillColor=#d5e8d4;horizontalStack=0;resizeParent=1;resizeParentMax=0;resizeLast=0;collapsible=1;marginBottom=0;whiteSpace=wrap;html=1;strokeColor=#82b366;" parent="1" vertex="1" collapsed="1">
          <mxGeometry x="234" y="967" width="81" height="26" as="geometry">
            <mxRectangle x="235" y="1084" width="140" height="52" as="alternateBounds" />
          </mxGeometry>
        </mxCell>
        <mxCell id="EStw5bXizqeQKJaaaStb-94" value="+&amp;nbsp;&lt;span style=&quot;text-align: center; text-wrap: nowrap;&quot;&gt;instances&lt;/span&gt;: map" style="text;strokeColor=none;fillColor=none;align=left;verticalAlign=top;spacingLeft=4;spacingRight=4;overflow=hidden;rotatable=0;points=[[0,0.5],[1,0.5]];portConstraint=eastwest;whiteSpace=wrap;html=1;" parent="EStw5bXizqeQKJaaaStb-92" vertex="1">
          <mxGeometry y="26" width="140" height="26" as="geometry" />
        </mxCell>
        <mxCell id="EStw5bXizqeQKJaaaStb-95" value="" style="endArrow=classicThin;html=1;rounded=0;entryX=0.5;entryY=0;entryDx=0;entryDy=0;exitX=0.5;exitY=1;exitDx=0;exitDy=0;dashed=1;endFill=1;" parent="1" source="EStw5bXizqeQKJaaaStb-92" target="EStw5bXizqeQKJaaaStb-91" edge="1">
          <mxGeometry width="50" height="50" relative="1" as="geometry">
            <mxPoint x="380" y="984" as="sourcePoint" />
            <mxPoint x="430" y="934" as="targetPoint" />
          </mxGeometry>
        </mxCell>
        <mxCell id="EStw5bXizqeQKJaaaStb-96" value="&lt;div style=&quot;text-align: left;&quot;&gt;&lt;span style=&quot;font-size: 10px; text-wrap: wrap;&quot;&gt;instances&lt;/span&gt;&lt;/div&gt;" style="edgeLabel;html=1;align=center;verticalAlign=middle;resizable=0;points=[];" parent="EStw5bXizqeQKJaaaStb-95" vertex="1" connectable="0">
          <mxGeometry x="0.2063" relative="1" as="geometry">
            <mxPoint x="-1" y="-13" as="offset" />
          </mxGeometry>
        </mxCell>
        <mxCell id="EStw5bXizqeQKJaaaStb-99" value="" style="rounded=0;orthogonalLoop=1;jettySize=auto;html=1;entryX=0.5;entryY=0;entryDx=0;entryDy=0;dashed=1;exitX=0.5;exitY=1;exitDx=0;exitDy=0;endArrow=classicThin;endFill=1;" parent="1" source="EStw5bXizqeQKJaaaStb-110" target="EStw5bXizqeQKJaaaStb-92" edge="1">
          <mxGeometry relative="1" as="geometry">
            <mxPoint x="273.82659999999987" y="940.0992115942029" as="sourcePoint" />
          </mxGeometry>
        </mxCell>
        <mxCell id="EStw5bXizqeQKJaaaStb-100" value="Node" style="swimlane;horizontal=0;whiteSpace=wrap;html=1;" parent="1" vertex="1">
          <mxGeometry x="187" y="1009" width="345" height="67" as="geometry" />
        </mxCell>
        <mxCell id="EStw5bXizqeQKJaaaStb-104" value="gceInstances" style="shape=ext;margin=3;double=1;whiteSpace=wrap;html=1;align=center;fillColor=#fff2cc;strokeColor=#d6b656;" parent="EStw5bXizqeQKJaaaStb-100" vertex="1">
          <mxGeometry x="228" y="13.5" width="93" height="40" as="geometry" />
        </mxCell>
        <mxCell id="EStw5bXizqeQKJaaaStb-105" value="" style="rounded=0;orthogonalLoop=1;jettySize=auto;html=1;exitX=1;exitY=0.5;exitDx=0;exitDy=0;entryX=0;entryY=0.5;entryDx=0;entryDy=0;" parent="EStw5bXizqeQKJaaaStb-100" source="EStw5bXizqeQKJaaaStb-91" target="EStw5bXizqeQKJaaaStb-104" edge="1">
          <mxGeometry relative="1" as="geometry">
            <mxPoint x="282" y="33.5" as="sourcePoint" />
            <mxPoint x="332" y="33" as="targetPoint" />
          </mxGeometry>
        </mxCell>
        <mxCell id="EStw5bXizqeQKJaaaStb-91" value="GetMigNodes" style="rounded=0;whiteSpace=wrap;html=1;" parent="EStw5bXizqeQKJaaaStb-100" vertex="1">
          <mxGeometry x="42.5" y="18" width="90" height="31" as="geometry" />
        </mxCell>
        <mxCell id="EStw5bXizqeQKJaaaStb-106" value="" style="endArrow=classicThin;html=1;rounded=0;exitX=0.5;exitY=0;exitDx=0;exitDy=0;endFill=1;dashed=1;entryX=0.532;entryY=1.043;entryDx=0;entryDy=0;entryPerimeter=0;" parent="1" source="EStw5bXizqeQKJaaaStb-104" target="EStw5bXizqeQKJaaaStb-109" edge="1">
          <mxGeometry width="50" height="50" relative="1" as="geometry">
            <mxPoint x="553" y="1025" as="sourcePoint" />
            <mxPoint x="469" y="944.81" as="targetPoint" />
          </mxGeometry>
        </mxCell>
        <mxCell id="EStw5bXizqeQKJaaaStb-107" value="&lt;font style=&quot;font-size: 10px;&quot;&gt;ClusterStateRegistry&lt;/font&gt;" style="swimlane;fontStyle=0;childLayout=stackLayout;horizontal=1;startSize=30;horizontalStack=0;resizeParent=1;resizeParentMax=0;resizeLast=0;collapsible=1;marginBottom=0;whiteSpace=wrap;html=1;fillColor=#d5e8d4;strokeColor=#82b366;" parent="1" vertex="1">
          <mxGeometry x="391" y="926" width="133" height="67" as="geometry">
            <mxRectangle x="379" y="1184" width="127" height="30" as="alternateBounds" />
          </mxGeometry>
        </mxCell>
        <mxCell id="EStw5bXizqeQKJaaaStb-108" value="&lt;span style=&quot;text-align: center;&quot;&gt;updateClusterState()&lt;/span&gt;" style="text;strokeColor=none;fillColor=none;align=left;verticalAlign=middle;spacingLeft=4;spacingRight=4;overflow=hidden;points=[[0,0.5],[1,0.5]];portConstraint=eastwest;rotatable=0;whiteSpace=wrap;html=1;" parent="EStw5bXizqeQKJaaaStb-107" vertex="1">
          <mxGeometry y="30" width="133" height="20" as="geometry" />
        </mxCell>
        <mxCell id="EStw5bXizqeQKJaaaStb-109" value="&lt;span style=&quot;text-align: center;&quot;&gt;backoffNodeGroup()&lt;/span&gt;" style="text;strokeColor=none;fillColor=none;align=left;verticalAlign=middle;spacingLeft=4;spacingRight=4;overflow=hidden;points=[[0,0.5],[1,0.5]];portConstraint=eastwest;rotatable=0;whiteSpace=wrap;html=1;" parent="EStw5bXizqeQKJaaaStb-107" vertex="1">
          <mxGeometry y="50" width="133" height="17" as="geometry" />
        </mxCell>
        <mxCell id="EStw5bXizqeQKJaaaStb-110" value="Refresh" style="rounded=0;whiteSpace=wrap;html=1;fillColor=#dae8fc;strokeColor=#6c8ebf;" parent="1" vertex="1">
          <mxGeometry x="234" y="926" width="81" height="27" as="geometry" />
        </mxCell>
        <mxCell id="EStw5bXizqeQKJaaaStb-123" value="" style="rounded=0;orthogonalLoop=1;jettySize=auto;html=1;entryX=0;entryY=0.5;entryDx=0;entryDy=0;dashed=1;exitX=1;exitY=0.5;exitDx=0;exitDy=0;endArrow=classicThin;endFill=1;" parent="1" source="EStw5bXizqeQKJaaaStb-134" target="EStw5bXizqeQKJaaaStb-137" edge="1">
          <mxGeometry relative="1" as="geometry">
            <mxPoint x="365.82659999999987" y="1223.3492115942029" as="sourcePoint" />
            <mxPoint x="366.5000000000001" y="1257.25" as="targetPoint" />
          </mxGeometry>
        </mxCell>
        <mxCell id="EStw5bXizqeQKJaaaStb-124" value="Node" style="swimlane;horizontal=0;whiteSpace=wrap;html=1;" parent="1" vertex="1">
          <mxGeometry x="200" y="1282" width="353" height="69" as="geometry" />
        </mxCell>
        <mxCell id="EStw5bXizqeQKJaaaStb-128" value="instances" style="shape=ext;margin=3;double=1;whiteSpace=wrap;html=1;align=center;fillColor=#fff2cc;strokeColor=#d6b656;" parent="EStw5bXizqeQKJaaaStb-124" vertex="1">
          <mxGeometry x="238" y="14.5" width="78" height="40" as="geometry" />
        </mxCell>
        <mxCell id="EStw5bXizqeQKJaaaStb-129" value="" style="rounded=0;orthogonalLoop=1;jettySize=auto;html=1;exitX=1;exitY=0.5;exitDx=0;exitDy=0;entryX=0;entryY=0.5;entryDx=0;entryDy=0;" parent="EStw5bXizqeQKJaaaStb-124" source="EStw5bXizqeQKJaaaStb-115" target="EStw5bXizqeQKJaaaStb-128" edge="1">
          <mxGeometry relative="1" as="geometry">
            <mxPoint x="270" y="33.5" as="sourcePoint" />
            <mxPoint x="332" y="33" as="targetPoint" />
          </mxGeometry>
        </mxCell>
        <mxCell id="EStw5bXizqeQKJaaaStb-115" value="GetAsgNodes" style="rounded=0;whiteSpace=wrap;html=1;" parent="EStw5bXizqeQKJaaaStb-124" vertex="1">
          <mxGeometry x="35" y="19" width="90" height="31" as="geometry" />
        </mxCell>
        <mxCell id="EStw5bXizqeQKJaaaStb-130" value="" style="endArrow=classicThin;html=1;rounded=0;exitX=0.5;exitY=0;exitDx=0;exitDy=0;endFill=1;dashed=1;entryX=0.532;entryY=1.043;entryDx=0;entryDy=0;entryPerimeter=0;" parent="1" source="EStw5bXizqeQKJaaaStb-128" target="EStw5bXizqeQKJaaaStb-133" edge="1">
          <mxGeometry width="50" height="50" relative="1" as="geometry">
            <mxPoint x="561" y="1297" as="sourcePoint" />
            <mxPoint x="477" y="1216.81" as="targetPoint" />
          </mxGeometry>
        </mxCell>
        <mxCell id="EStw5bXizqeQKJaaaStb-131" value="&lt;font style=&quot;font-size: 10px;&quot;&gt;ClusterStateRegistry&lt;/font&gt;" style="swimlane;fontStyle=0;childLayout=stackLayout;horizontal=1;startSize=30;horizontalStack=0;resizeParent=1;resizeParentMax=0;resizeLast=0;collapsible=1;marginBottom=0;whiteSpace=wrap;html=1;fillColor=#d5e8d4;strokeColor=#82b366;" parent="1" vertex="1">
          <mxGeometry x="406" y="1198" width="133" height="67" as="geometry">
            <mxRectangle x="379" y="1184" width="127" height="30" as="alternateBounds" />
          </mxGeometry>
        </mxCell>
        <mxCell id="EStw5bXizqeQKJaaaStb-132" value="&lt;span style=&quot;text-align: center;&quot;&gt;updateClusterState()&lt;/span&gt;" style="text;strokeColor=none;fillColor=none;align=left;verticalAlign=middle;spacingLeft=4;spacingRight=4;overflow=hidden;points=[[0,0.5],[1,0.5]];portConstraint=eastwest;rotatable=0;whiteSpace=wrap;html=1;" parent="EStw5bXizqeQKJaaaStb-131" vertex="1">
          <mxGeometry y="30" width="133" height="20" as="geometry" />
        </mxCell>
        <mxCell id="EStw5bXizqeQKJaaaStb-133" value="&lt;span style=&quot;text-align: center;&quot;&gt;backoffNodeGroup()&lt;/span&gt;" style="text;strokeColor=none;fillColor=none;align=left;verticalAlign=middle;spacingLeft=4;spacingRight=4;overflow=hidden;points=[[0,0.5],[1,0.5]];portConstraint=eastwest;rotatable=0;whiteSpace=wrap;html=1;" parent="EStw5bXizqeQKJaaaStb-131" vertex="1">
          <mxGeometry y="50" width="133" height="17" as="geometry" />
        </mxCell>
        <mxCell id="EStw5bXizqeQKJaaaStb-134" value="Refresh" style="rounded=0;whiteSpace=wrap;html=1;fillColor=#dae8fc;strokeColor=#6c8ebf;" parent="1" vertex="1">
          <mxGeometry x="211" y="1214" width="81" height="27" as="geometry" />
        </mxCell>
        <mxCell id="EStw5bXizqeQKJaaaStb-137" value="&lt;span style=&quot;text-align: left;&quot;&gt;instanceToAsg&lt;/span&gt;" style="shape=ext;margin=3;double=1;whiteSpace=wrap;html=1;align=center;fillColor=#fff2cc;strokeColor=#d6b656;" parent="1" vertex="1">
          <mxGeometry x="304.8" y="1211" width="87.2" height="33" as="geometry" />
        </mxCell>
        <mxCell id="EStw5bXizqeQKJaaaStb-145" value="" style="rounded=0;orthogonalLoop=1;jettySize=auto;html=1;entryX=0;entryY=0.5;entryDx=0;entryDy=0;dashed=1;exitX=1;exitY=0.5;exitDx=0;exitDy=0;endArrow=classicThin;endFill=1;" parent="1" source="EStw5bXizqeQKJaaaStb-159" target="EStw5bXizqeQKJaaaStb-161" edge="1">
          <mxGeometry relative="1" as="geometry">
            <mxPoint x="381.82659999999987" y="1412.3492115942029" as="sourcePoint" />
            <mxPoint x="382.5000000000001" y="1446.25" as="targetPoint" />
          </mxGeometry>
        </mxCell>
        <mxCell id="EStw5bXizqeQKJaaaStb-146" value="Node" style="swimlane;horizontal=0;whiteSpace=wrap;html=1;" parent="1" vertex="1">
          <mxGeometry x="134" y="1487" width="412" height="67" as="geometry" />
        </mxCell>
        <mxCell id="EStw5bXizqeQKJaaaStb-147" value="GetInstanceStatus" style="rounded=0;whiteSpace=wrap;html=1;fillColor=#f8cecc;strokeColor=#b85450;" parent="EStw5bXizqeQKJaaaStb-146" vertex="1">
          <mxGeometry x="167" y="28" width="109" height="31" as="geometry" />
        </mxCell>
        <mxCell id="EStw5bXizqeQKJaaaStb-148" value="GetInstanceStatus" style="rounded=0;whiteSpace=wrap;html=1;fillColor=#f8cecc;strokeColor=#b85450;" parent="EStw5bXizqeQKJaaaStb-146" vertex="1">
          <mxGeometry x="164" y="24" width="109" height="31" as="geometry" />
        </mxCell>
        <mxCell id="EStw5bXizqeQKJaaaStb-149" value="GetInstanceStatus" style="rounded=0;whiteSpace=wrap;html=1;fillColor=#f8cecc;strokeColor=#b85450;" parent="EStw5bXizqeQKJaaaStb-146" vertex="1">
          <mxGeometry x="161" y="19" width="109" height="31" as="geometry" />
        </mxCell>
        <mxCell id="EStw5bXizqeQKJaaaStb-150" value="instances" style="shape=ext;margin=3;double=1;whiteSpace=wrap;html=1;align=center;fillColor=#fff2cc;strokeColor=#d6b656;" parent="EStw5bXizqeQKJaaaStb-146" vertex="1">
          <mxGeometry x="311" y="14.5" width="78" height="40" as="geometry" />
        </mxCell>
        <mxCell id="EStw5bXizqeQKJaaaStb-151" value="" style="rounded=0;orthogonalLoop=1;jettySize=auto;html=1;exitX=1;exitY=0.5;exitDx=0;exitDy=0;entryX=0;entryY=0.5;entryDx=0;entryDy=0;" parent="EStw5bXizqeQKJaaaStb-146" source="EStw5bXizqeQKJaaaStb-149" target="EStw5bXizqeQKJaaaStb-150" edge="1">
          <mxGeometry relative="1" as="geometry">
            <mxPoint x="339" y="34.23000000000002" as="sourcePoint" />
            <mxPoint x="332" y="34" as="targetPoint" />
          </mxGeometry>
        </mxCell>
        <mxCell id="EStw5bXizqeQKJaaaStb-152" value="GetAsgNodes" style="rounded=0;whiteSpace=wrap;html=1;" parent="EStw5bXizqeQKJaaaStb-146" vertex="1">
          <mxGeometry x="28" y="19" width="90" height="31" as="geometry" />
        </mxCell>
        <mxCell id="EStw5bXizqeQKJaaaStb-153" value="" style="rounded=0;orthogonalLoop=1;jettySize=auto;html=1;" parent="EStw5bXizqeQKJaaaStb-146" source="EStw5bXizqeQKJaaaStb-152" target="EStw5bXizqeQKJaaaStb-149" edge="1">
          <mxGeometry relative="1" as="geometry" />
        </mxCell>
        <mxCell id="EStw5bXizqeQKJaaaStb-154" value="" style="endArrow=classicThin;html=1;rounded=0;exitX=0.5;exitY=0;exitDx=0;exitDy=0;endFill=1;dashed=1;entryX=0.532;entryY=1.043;entryDx=0;entryDy=0;entryPerimeter=0;" parent="1" source="EStw5bXizqeQKJaaaStb-150" target="EStw5bXizqeQKJaaaStb-157" edge="1">
          <mxGeometry width="50" height="50" relative="1" as="geometry">
            <mxPoint x="568" y="1502" as="sourcePoint" />
            <mxPoint x="484" y="1421.81" as="targetPoint" />
          </mxGeometry>
        </mxCell>
        <mxCell id="EStw5bXizqeQKJaaaStb-155" value="&lt;font style=&quot;font-size: 10px;&quot;&gt;ClusterStateRegistry&lt;/font&gt;" style="swimlane;fontStyle=0;childLayout=stackLayout;horizontal=1;startSize=30;horizontalStack=0;resizeParent=1;resizeParentMax=0;resizeLast=0;collapsible=1;marginBottom=0;whiteSpace=wrap;html=1;fillColor=#d5e8d4;strokeColor=#82b366;" parent="1" vertex="1">
          <mxGeometry x="413" y="1403" width="133" height="67" as="geometry">
            <mxRectangle x="379" y="1184" width="127" height="30" as="alternateBounds" />
          </mxGeometry>
        </mxCell>
        <mxCell id="EStw5bXizqeQKJaaaStb-156" value="&lt;span style=&quot;text-align: center;&quot;&gt;updateClusterState()&lt;/span&gt;" style="text;strokeColor=none;fillColor=none;align=left;verticalAlign=middle;spacingLeft=4;spacingRight=4;overflow=hidden;points=[[0,0.5],[1,0.5]];portConstraint=eastwest;rotatable=0;whiteSpace=wrap;html=1;" parent="EStw5bXizqeQKJaaaStb-155" vertex="1">
          <mxGeometry y="30" width="133" height="20" as="geometry" />
        </mxCell>
        <mxCell id="EStw5bXizqeQKJaaaStb-157" value="&lt;span style=&quot;text-align: center;&quot;&gt;backoffNodeGroup()&lt;/span&gt;" style="text;strokeColor=none;fillColor=none;align=left;verticalAlign=middle;spacingLeft=4;spacingRight=4;overflow=hidden;points=[[0,0.5],[1,0.5]];portConstraint=eastwest;rotatable=0;whiteSpace=wrap;html=1;" parent="EStw5bXizqeQKJaaaStb-155" vertex="1">
          <mxGeometry y="50" width="133" height="17" as="geometry" />
        </mxCell>
        <mxCell id="EStw5bXizqeQKJaaaStb-158" value="" style="rounded=0;orthogonalLoop=1;jettySize=auto;html=1;entryX=0.5;entryY=0;entryDx=0;entryDy=0;" parent="1" source="EStw5bXizqeQKJaaaStb-159" target="EStw5bXizqeQKJaaaStb-164" edge="1">
          <mxGeometry relative="1" as="geometry" />
        </mxCell>
        <mxCell id="EStw5bXizqeQKJaaaStb-159" value="Refresh" style="rounded=0;whiteSpace=wrap;html=1;fillColor=#dae8fc;strokeColor=#6c8ebf;" parent="1" vertex="1">
          <mxGeometry x="227" y="1403" width="81" height="27" as="geometry" />
        </mxCell>
        <mxCell id="EStw5bXizqeQKJaaaStb-160" value="" style="rounded=0;orthogonalLoop=1;jettySize=auto;html=1;entryX=1.045;entryY=0.044;entryDx=0;entryDy=0;entryPerimeter=0;exitX=0.5;exitY=1;exitDx=0;exitDy=0;fillColor=#f8cecc;strokeColor=#b85450;dashed=1;" parent="1" source="EStw5bXizqeQKJaaaStb-161" target="EStw5bXizqeQKJaaaStb-164" edge="1">
          <mxGeometry relative="1" as="geometry" />
        </mxCell>
        <mxCell id="EStw5bXizqeQKJaaaStb-161" value="&lt;span style=&quot;text-align: left;&quot;&gt;instanceToAsg&lt;/span&gt;" style="shape=ext;margin=3;double=1;whiteSpace=wrap;html=1;align=center;fillColor=#fff2cc;strokeColor=#d6b656;dashed=1;" parent="1" vertex="1">
          <mxGeometry x="320.79999999999995" y="1400" width="87.2" height="33" as="geometry" />
        </mxCell>
        <mxCell id="EStw5bXizqeQKJaaaStb-162" value="" style="edgeStyle=orthogonalEdgeStyle;rounded=0;orthogonalLoop=1;jettySize=auto;html=1;exitX=0;exitY=0.5;exitDx=0;exitDy=0;fillColor=#f8cecc;strokeColor=#b85450;dashed=1;" parent="1" source="EStw5bXizqeQKJaaaStb-164" target="EStw5bXizqeQKJaaaStb-152" edge="1">
          <mxGeometry relative="1" as="geometry" />
        </mxCell>
        <mxCell id="EStw5bXizqeQKJaaaStb-163" value="" style="edgeStyle=orthogonalEdgeStyle;rounded=0;orthogonalLoop=1;jettySize=auto;html=1;entryX=0.5;entryY=0;entryDx=0;entryDy=0;exitX=1;exitY=0.5;exitDx=0;exitDy=0;fillColor=#f8cecc;strokeColor=#b85450;dashed=1;" parent="1" source="EStw5bXizqeQKJaaaStb-164" target="EStw5bXizqeQKJaaaStb-149" edge="1">
          <mxGeometry relative="1" as="geometry" />
        </mxCell>
        <mxCell id="EStw5bXizqeQKJaaaStb-164" value="asgCache" style="swimlane;fontStyle=0;childLayout=stackLayout;horizontal=1;startSize=26;fillColor=#f8cecc;horizontalStack=0;resizeParent=1;resizeParentMax=0;resizeLast=0;collapsible=1;marginBottom=0;whiteSpace=wrap;html=1;strokeColor=#b85450;" parent="1" vertex="1" collapsed="1">
          <mxGeometry x="227" y="1450" width="81" height="26" as="geometry">
            <mxRectangle x="200" y="1240" width="140" height="52" as="alternateBounds" />
          </mxGeometry>
        </mxCell>
        <mxCell id="EStw5bXizqeQKJaaaStb-165" value="+ instanceToAsg" style="text;strokeColor=none;fillColor=none;align=left;verticalAlign=top;spacingLeft=4;spacingRight=4;overflow=hidden;rotatable=0;points=[[0,0.5],[1,0.5]];portConstraint=eastwest;whiteSpace=wrap;html=1;" parent="EStw5bXizqeQKJaaaStb-164" vertex="1">
          <mxGeometry y="26" width="140" height="26" as="geometry" />
        </mxCell>
        <mxCell id="EStw5bXizqeQKJaaaStb-170" value="" style="edgeStyle=orthogonalEdgeStyle;rounded=0;orthogonalLoop=1;jettySize=auto;html=1;" parent="1" source="EStw5bXizqeQKJaaaStb-167" target="EStw5bXizqeQKJaaaStb-169" edge="1">
          <mxGeometry relative="1" as="geometry" />
        </mxCell>
        <mxCell id="EStw5bXizqeQKJaaaStb-167" value="" style="ellipse;whiteSpace=wrap;html=1;aspect=fixed;" parent="1" vertex="1">
          <mxGeometry x="329.3" y="1598" width="18" height="18" as="geometry" />
        </mxCell>
        <mxCell id="EStw5bXizqeQKJaaaStb-175" value="" style="rounded=0;orthogonalLoop=1;jettySize=auto;html=1;" parent="1" source="EStw5bXizqeQKJaaaStb-169" target="EStw5bXizqeQKJaaaStb-174" edge="1">
          <mxGeometry relative="1" as="geometry" />
        </mxCell>
        <mxCell id="EStw5bXizqeQKJaaaStb-169" value="cur &amp;lt; desired" style="rhombus;whiteSpace=wrap;html=1;" parent="1" vertex="1">
          <mxGeometry x="292" y="1641" width="92.6" height="40" as="geometry" />
        </mxCell>
        <mxCell id="EStw5bXizqeQKJaaaStb-171" value="不填充，返回instance" style="rounded=1;whiteSpace=wrap;html=1;" parent="1" vertex="1">
          <mxGeometry x="442" y="1899" width="128" height="23" as="geometry" />
        </mxCell>
        <mxCell id="EStw5bXizqeQKJaaaStb-172" value="" style="edgeStyle=orthogonalEdgeStyle;rounded=0;orthogonalLoop=1;jettySize=auto;html=1;entryX=0.5;entryY=0;entryDx=0;entryDy=0;exitX=1;exitY=0.5;exitDx=0;exitDy=0;" parent="1" source="EStw5bXizqeQKJaaaStb-169" target="EStw5bXizqeQKJaaaStb-171" edge="1">
          <mxGeometry relative="1" as="geometry">
            <mxPoint x="348" y="1626" as="sourcePoint" />
            <mxPoint x="348" y="1651" as="targetPoint" />
          </mxGeometry>
        </mxCell>
        <mxCell id="EStw5bXizqeQKJaaaStb-173" value="否" style="text;html=1;align=center;verticalAlign=middle;resizable=0;points=[];autosize=1;strokeColor=none;fillColor=none;" parent="1" vertex="1">
          <mxGeometry x="424" y="1636" width="30" height="26" as="geometry" />
        </mxCell>
        <mxCell id="EStw5bXizqeQKJaaaStb-178" value="" style="rounded=0;orthogonalLoop=1;jettySize=auto;html=1;" parent="1" source="EStw5bXizqeQKJaaaStb-174" target="EStw5bXizqeQKJaaaStb-177" edge="1">
          <mxGeometry relative="1" as="geometry" />
        </mxCell>
        <mxCell id="EStw5bXizqeQKJaaaStb-174" value="IsNodeGroup&lt;div&gt;ScalingUp&lt;/div&gt;" style="rhombus;whiteSpace=wrap;html=1;" parent="1" vertex="1">
          <mxGeometry x="291.34999999999997" y="1717" width="97.3" height="47" as="geometry" />
        </mxCell>
        <mxCell id="EStw5bXizqeQKJaaaStb-176" value="是" style="text;html=1;align=center;verticalAlign=middle;resizable=0;points=[];autosize=1;strokeColor=none;fillColor=none;" parent="1" vertex="1">
          <mxGeometry x="308" y="1681" width="30" height="26" as="geometry" />
        </mxCell>
        <mxCell id="EStw5bXizqeQKJaaaStb-184" value="" style="rounded=0;orthogonalLoop=1;jettySize=auto;html=1;" parent="1" source="EStw5bXizqeQKJaaaStb-177" target="EStw5bXizqeQKJaaaStb-183" edge="1">
          <mxGeometry relative="1" as="geometry" />
        </mxCell>
        <mxCell id="EStw5bXizqeQKJaaaStb-177" value="scaleUpRequest&lt;div&gt;[startTime, ExpectedAddTime]&lt;/div&gt;" style="rounded=1;whiteSpace=wrap;html=1;" parent="1" vertex="1">
          <mxGeometry x="251" y="1794" width="178" height="34" as="geometry" />
        </mxCell>
        <mxCell id="EStw5bXizqeQKJaaaStb-189" value="" style="edgeStyle=orthogonalEdgeStyle;rounded=0;orthogonalLoop=1;jettySize=auto;html=1;entryX=0;entryY=0.5;entryDx=0;entryDy=0;exitX=0.5;exitY=1;exitDx=0;exitDy=0;" parent="1" target="EStw5bXizqeQKJaaaStb-187" edge="1">
          <mxGeometry relative="1" as="geometry">
            <mxPoint x="190.5" y="1923" as="sourcePoint" />
          </mxGeometry>
        </mxCell>
        <mxCell id="EStw5bXizqeQKJaaaStb-179" value="填充OtherErrorClass" style="rounded=1;whiteSpace=wrap;html=1;" parent="1" vertex="1">
          <mxGeometry x="134" y="1898" width="113" height="24" as="geometry" />
        </mxCell>
        <mxCell id="EStw5bXizqeQKJaaaStb-180" value="" style="edgeStyle=orthogonalEdgeStyle;rounded=0;orthogonalLoop=1;jettySize=auto;html=1;entryX=0.5;entryY=0;entryDx=0;entryDy=0;exitX=0;exitY=0.5;exitDx=0;exitDy=0;" parent="1" source="EStw5bXizqeQKJaaaStb-174" edge="1">
          <mxGeometry relative="1" as="geometry">
            <mxPoint x="395" y="1671" as="sourcePoint" />
            <mxPoint x="190.5" y="1899" as="targetPoint" />
          </mxGeometry>
        </mxCell>
        <mxCell id="EStw5bXizqeQKJaaaStb-181" value="否" style="text;html=1;align=center;verticalAlign=middle;resizable=0;points=[];autosize=1;strokeColor=none;fillColor=none;" parent="1" vertex="1">
          <mxGeometry x="214" y="1717" width="30" height="26" as="geometry" />
        </mxCell>
        <mxCell id="EStw5bXizqeQKJaaaStb-182" value="是" style="text;html=1;align=center;verticalAlign=middle;resizable=0;points=[];autosize=1;strokeColor=none;fillColor=none;" parent="1" vertex="1">
          <mxGeometry x="305" y="1764" width="30" height="26" as="geometry" />
        </mxCell>
        <mxCell id="EStw5bXizqeQKJaaaStb-186" value="" style="edgeStyle=orthogonalEdgeStyle;rounded=0;orthogonalLoop=1;jettySize=auto;html=1;" parent="1" source="EStw5bXizqeQKJaaaStb-183" target="EStw5bXizqeQKJaaaStb-185" edge="1">
          <mxGeometry relative="1" as="geometry" />
        </mxCell>
        <mxCell id="EStw5bXizqeQKJaaaStb-183" value="查询时间区间内的伸缩活动" style="rounded=1;whiteSpace=wrap;html=1;" parent="1" vertex="1">
          <mxGeometry x="264" y="1853" width="152.5" height="23" as="geometry" />
        </mxCell>
        <mxCell id="EStw5bXizqeQKJaaaStb-190" value="" style="edgeStyle=orthogonalEdgeStyle;rounded=0;orthogonalLoop=1;jettySize=auto;html=1;" parent="1" source="EStw5bXizqeQKJaaaStb-185" target="EStw5bXizqeQKJaaaStb-187" edge="1">
          <mxGeometry relative="1" as="geometry" />
        </mxCell>
        <mxCell id="EStw5bXizqeQKJaaaStb-185" value="根据伸缩活动ErrorCode填充" style="rounded=1;whiteSpace=wrap;html=1;" parent="1" vertex="1">
          <mxGeometry x="260.5" y="1899" width="159.5" height="24" as="geometry" />
        </mxCell>
        <mxCell id="EStw5bXizqeQKJaaaStb-187" value="" style="ellipse;whiteSpace=wrap;html=1;aspect=fixed;" parent="1" vertex="1">
          <mxGeometry x="331" y="1954" width="18" height="18" as="geometry" />
        </mxCell>
        <mxCell id="EStw5bXizqeQKJaaaStb-191" value="" style="edgeStyle=orthogonalEdgeStyle;rounded=0;orthogonalLoop=1;jettySize=auto;html=1;entryX=1;entryY=0.5;entryDx=0;entryDy=0;exitX=0.5;exitY=1;exitDx=0;exitDy=0;" parent="1" source="EStw5bXizqeQKJaaaStb-171" target="EStw5bXizqeQKJaaaStb-187" edge="1">
          <mxGeometry relative="1" as="geometry">
            <mxPoint x="201" y="1933" as="sourcePoint" />
            <mxPoint x="341" y="1973" as="targetPoint" />
          </mxGeometry>
        </mxCell>
        <mxCell id="EStw5bXizqeQKJaaaStb-193" value="Node" style="swimlane;horizontal=0;whiteSpace=wrap;html=1;" parent="1" vertex="1">
          <mxGeometry x="193" y="2137" width="353" height="69" as="geometry" />
        </mxCell>
        <mxCell id="EStw5bXizqeQKJaaaStb-194" value="instances" style="shape=ext;margin=3;double=1;whiteSpace=wrap;html=1;align=center;fillColor=#fff2cc;strokeColor=#d6b656;" parent="EStw5bXizqeQKJaaaStb-193" vertex="1">
          <mxGeometry x="238" y="14.5" width="78" height="40" as="geometry" />
        </mxCell>
        <mxCell id="EStw5bXizqeQKJaaaStb-195" value="" style="rounded=0;orthogonalLoop=1;jettySize=auto;html=1;exitX=1;exitY=0.5;exitDx=0;exitDy=0;entryX=0;entryY=0.5;entryDx=0;entryDy=0;" parent="EStw5bXizqeQKJaaaStb-193" source="EStw5bXizqeQKJaaaStb-196" target="EStw5bXizqeQKJaaaStb-194" edge="1">
          <mxGeometry relative="1" as="geometry">
            <mxPoint x="270" y="33.5" as="sourcePoint" />
            <mxPoint x="332" y="33" as="targetPoint" />
          </mxGeometry>
        </mxCell>
        <mxCell id="EStw5bXizqeQKJaaaStb-196" value="GetAsgNodes" style="rounded=0;whiteSpace=wrap;html=1;" parent="EStw5bXizqeQKJaaaStb-193" vertex="1">
          <mxGeometry x="35" y="19" width="90" height="31" as="geometry" />
        </mxCell>
        <mxCell id="EStw5bXizqeQKJaaaStb-192" value="" style="rounded=0;orthogonalLoop=1;jettySize=auto;html=1;entryX=0;entryY=0.5;entryDx=0;entryDy=0;dashed=1;exitX=1;exitY=0.5;exitDx=0;exitDy=0;endArrow=classicThin;endFill=1;" parent="1" source="EStw5bXizqeQKJaaaStb-201" target="EStw5bXizqeQKJaaaStb-202" edge="1">
          <mxGeometry relative="1" as="geometry">
            <mxPoint x="358.82659999999987" y="2078.3492115942026" as="sourcePoint" />
            <mxPoint x="359.5000000000001" y="2112.25" as="targetPoint" />
          </mxGeometry>
        </mxCell>
        <mxCell id="EStw5bXizqeQKJaaaStb-197" value="" style="endArrow=classicThin;html=1;rounded=0;exitX=0.5;exitY=0;exitDx=0;exitDy=0;endFill=1;dashed=1;entryX=0.532;entryY=1.043;entryDx=0;entryDy=0;entryPerimeter=0;" parent="1" source="EStw5bXizqeQKJaaaStb-194" target="EStw5bXizqeQKJaaaStb-200" edge="1">
          <mxGeometry width="50" height="50" relative="1" as="geometry">
            <mxPoint x="554" y="2152" as="sourcePoint" />
            <mxPoint x="470" y="2071.81" as="targetPoint" />
          </mxGeometry>
        </mxCell>
        <mxCell id="EStw5bXizqeQKJaaaStb-198" value="&lt;font style=&quot;font-size: 10px;&quot;&gt;ClusterStateRegistry&lt;/font&gt;" style="swimlane;fontStyle=0;childLayout=stackLayout;horizontal=1;startSize=30;horizontalStack=0;resizeParent=1;resizeParentMax=0;resizeLast=0;collapsible=1;marginBottom=0;whiteSpace=wrap;html=1;fillColor=#d5e8d4;strokeColor=#82b366;" parent="1" vertex="1">
          <mxGeometry x="399" y="2053" width="133" height="67" as="geometry">
            <mxRectangle x="379" y="1184" width="127" height="30" as="alternateBounds" />
          </mxGeometry>
        </mxCell>
        <mxCell id="EStw5bXizqeQKJaaaStb-199" value="&lt;span style=&quot;text-align: center;&quot;&gt;updateClusterState()&lt;/span&gt;" style="text;strokeColor=none;fillColor=none;align=left;verticalAlign=middle;spacingLeft=4;spacingRight=4;overflow=hidden;points=[[0,0.5],[1,0.5]];portConstraint=eastwest;rotatable=0;whiteSpace=wrap;html=1;" parent="EStw5bXizqeQKJaaaStb-198" vertex="1">
          <mxGeometry y="30" width="133" height="20" as="geometry" />
        </mxCell>
        <mxCell id="EStw5bXizqeQKJaaaStb-200" value="&lt;span style=&quot;text-align: center;&quot;&gt;backoffNodeGroup()&lt;/span&gt;" style="text;strokeColor=none;fillColor=none;align=left;verticalAlign=middle;spacingLeft=4;spacingRight=4;overflow=hidden;points=[[0,0.5],[1,0.5]];portConstraint=eastwest;rotatable=0;whiteSpace=wrap;html=1;" parent="EStw5bXizqeQKJaaaStb-198" vertex="1">
          <mxGeometry y="50" width="133" height="17" as="geometry" />
        </mxCell>
        <mxCell id="EStw5bXizqeQKJaaaStb-201" value="Refresh" style="rounded=0;whiteSpace=wrap;html=1;fillColor=#dae8fc;strokeColor=#6c8ebf;" parent="1" vertex="1">
          <mxGeometry x="229" y="2073" width="81" height="27" as="geometry" />
        </mxCell>
        <mxCell id="EStw5bXizqeQKJaaaStb-202" value="&lt;span style=&quot;text-align: left;&quot;&gt;instanceToAsg&lt;/span&gt;" style="shape=ext;margin=3;double=1;whiteSpace=wrap;html=1;align=center;fillColor=#fff2cc;strokeColor=#d6b656;" parent="1" vertex="1">
          <mxGeometry x="297.79999999999995" y="2066" width="87.2" height="33" as="geometry" />
        </mxCell>
        <mxCell id="varlpIeGK1AMJLTbUiaN-1" value="DeleteNodes" style="swimlane;horizontal=0;whiteSpace=wrap;html=1;" parent="1" vertex="1">
          <mxGeometry x="187" y="1082" width="345" height="77" as="geometry">
            <mxRectangle x="188" y="1102" width="32" height="92" as="alternateBounds" />
          </mxGeometry>
        </mxCell>
        <mxCell id="5BBRg3yK1_JjyFoo_uhe-3" value="跳过虚拟node" style="rounded=0;whiteSpace=wrap;html=1;" parent="varlpIeGK1AMJLTbUiaN-1" vertex="1">
          <mxGeometry x="120.5" y="25" width="90" height="31" as="geometry" />
        </mxCell>
        <mxCell id="IJfKlmuMN-XNazfKIvlV-6" value="" style="edgeStyle=orthogonalEdgeStyle;rounded=0;orthogonalLoop=1;jettySize=auto;html=1;" edge="1" parent="1" source="IJfKlmuMN-XNazfKIvlV-1" target="IJfKlmuMN-XNazfKIvlV-2">
          <mxGeometry relative="1" as="geometry" />
        </mxCell>
        <mxCell id="IJfKlmuMN-XNazfKIvlV-9" value="" style="edgeStyle=orthogonalEdgeStyle;rounded=0;orthogonalLoop=1;jettySize=auto;html=1;entryX=0;entryY=0.5;entryDx=0;entryDy=0;dashed=1;" edge="1" parent="1" source="IJfKlmuMN-XNazfKIvlV-1" target="IJfKlmuMN-XNazfKIvlV-4">
          <mxGeometry relative="1" as="geometry">
            <mxPoint x="174.0050000000001" y="2604.5" as="targetPoint" />
          </mxGeometry>
        </mxCell>
        <mxCell id="IJfKlmuMN-XNazfKIvlV-1" value="机器开机" style="rounded=0;whiteSpace=wrap;html=1;" vertex="1" parent="1">
          <mxGeometry x="106" y="2474.5" width="68.65" height="29" as="geometry" />
        </mxCell>
        <mxCell id="IJfKlmuMN-XNazfKIvlV-7" value="" style="edgeStyle=orthogonalEdgeStyle;rounded=0;orthogonalLoop=1;jettySize=auto;html=1;" edge="1" parent="1" source="IJfKlmuMN-XNazfKIvlV-2" target="IJfKlmuMN-XNazfKIvlV-3">
          <mxGeometry relative="1" as="geometry" />
        </mxCell>
        <mxCell id="IJfKlmuMN-XNazfKIvlV-2" value="k8s注册node" style="rounded=0;whiteSpace=wrap;html=1;" vertex="1" parent="1">
          <mxGeometry x="222.99999999999994" y="2474.5" width="68.65" height="29" as="geometry" />
        </mxCell>
        <mxCell id="IJfKlmuMN-XNazfKIvlV-3" value="启动cni" style="rounded=0;whiteSpace=wrap;html=1;" vertex="1" parent="1">
          <mxGeometry x="351.17999999999995" y="2474.5" width="68.65" height="29" as="geometry" />
        </mxCell>
        <mxCell id="IJfKlmuMN-XNazfKIvlV-10" value="" style="edgeStyle=orthogonalEdgeStyle;rounded=0;orthogonalLoop=1;jettySize=auto;html=1;dashed=1;" edge="1" parent="1" source="IJfKlmuMN-XNazfKIvlV-4" target="IJfKlmuMN-XNazfKIvlV-5">
          <mxGeometry relative="1" as="geometry" />
        </mxCell>
        <mxCell id="IJfKlmuMN-XNazfKIvlV-4" value="cmdb" style="rounded=0;whiteSpace=wrap;html=1;" vertex="1" parent="1">
          <mxGeometry x="222.99999999999994" y="2539.5" width="68.65" height="29" as="geometry" />
        </mxCell>
        <mxCell id="IJfKlmuMN-XNazfKIvlV-5" value="mmachine流程" style="rounded=0;whiteSpace=wrap;html=1;" vertex="1" parent="1">
          <mxGeometry x="351.17999999999995" y="2539.5" width="68.65" height="29" as="geometry" />
        </mxCell>
        <mxCell id="IJfKlmuMN-XNazfKIvlV-11" value="1min左右" style="text;html=1;align=center;verticalAlign=middle;resizable=0;points=[];autosize=1;strokeColor=none;fillColor=none;" vertex="1" parent="1">
          <mxGeometry x="120.99999999999997" y="2415.5" width="68" height="26" as="geometry" />
        </mxCell>
        <mxCell id="IJfKlmuMN-XNazfKIvlV-12" value="300台 1min" style="text;html=1;align=center;verticalAlign=middle;resizable=0;points=[];autosize=1;strokeColor=none;fillColor=none;" vertex="1" parent="1">
          <mxGeometry x="345.5" y="2403.5" width="79" height="26" as="geometry" />
        </mxCell>
        <mxCell id="IJfKlmuMN-XNazfKIvlV-13" value="400台 1min" style="text;html=1;align=center;verticalAlign=middle;resizable=0;points=[];autosize=1;strokeColor=none;fillColor=none;" vertex="1" parent="1">
          <mxGeometry x="345.5" y="2423.5" width="79" height="26" as="geometry" />
        </mxCell>
        <mxCell id="IJfKlmuMN-XNazfKIvlV-14" value="500台 2min" style="text;html=1;align=center;verticalAlign=middle;resizable=0;points=[];autosize=1;strokeColor=none;fillColor=none;" vertex="1" parent="1">
          <mxGeometry x="345.5" y="2445.5" width="79" height="26" as="geometry" />
        </mxCell>
        <mxCell id="IJfKlmuMN-XNazfKIvlV-16" value="" style="edgeStyle=orthogonalEdgeStyle;rounded=0;orthogonalLoop=1;jettySize=auto;html=1;" edge="1" parent="1" source="IJfKlmuMN-XNazfKIvlV-15" target="IJfKlmuMN-XNazfKIvlV-1">
          <mxGeometry relative="1" as="geometry" />
        </mxCell>
        <mxCell id="IJfKlmuMN-XNazfKIvlV-15" value="" style="ellipse;whiteSpace=wrap;html=1;aspect=fixed;" vertex="1" parent="1">
          <mxGeometry x="50" y="2482.5" width="13" height="13" as="geometry" />
        </mxCell>
        <mxCell id="IJfKlmuMN-XNazfKIvlV-17" value="" style="shape=curlyBracket;whiteSpace=wrap;html=1;rounded=1;labelPosition=left;verticalLabelPosition=middle;align=right;verticalAlign=middle;rotation=90;" vertex="1" parent="1">
          <mxGeometry x="148.5" y="2366" width="20" height="185" as="geometry" />
        </mxCell>
        <mxCell id="IJfKlmuMN-XNazfKIvlV-18" value="300台 3min" style="text;html=1;align=center;verticalAlign=middle;resizable=0;points=[];autosize=1;strokeColor=none;fillColor=none;" vertex="1" parent="1">
          <mxGeometry x="351.18" y="2579.5" width="79" height="26" as="geometry" />
        </mxCell>
        <mxCell id="IJfKlmuMN-XNazfKIvlV-19" value="400台 7min" style="text;html=1;align=center;verticalAlign=middle;resizable=0;points=[];autosize=1;strokeColor=none;fillColor=none;" vertex="1" parent="1">
          <mxGeometry x="351.18" y="2599.5" width="79" height="26" as="geometry" />
        </mxCell>
        <mxCell id="IJfKlmuMN-XNazfKIvlV-20" value="500台 10min" style="text;html=1;align=center;verticalAlign=middle;resizable=0;points=[];autosize=1;strokeColor=none;fillColor=none;" vertex="1" parent="1">
          <mxGeometry x="348.18" y="2621.5" width="86" height="26" as="geometry" />
        </mxCell>
        <mxCell id="IJfKlmuMN-XNazfKIvlV-23" value="" style="shape=flexArrow;endArrow=classic;html=1;rounded=0;" edge="1" parent="1">
          <mxGeometry width="50" height="50" relative="1" as="geometry">
            <mxPoint x="495" y="2552.13" as="sourcePoint" />
            <mxPoint x="450" y="2552.13" as="targetPoint" />
          </mxGeometry>
        </mxCell>
        <mxCell id="IJfKlmuMN-XNazfKIvlV-24" value="旁路不影响正常使用，主要用于在odin tree展示" style="text;html=1;align=center;verticalAlign=middle;resizable=0;points=[];autosize=1;strokeColor=none;fillColor=none;" vertex="1" parent="1">
          <mxGeometry x="500" y="2541" width="269" height="26" as="geometry" />
        </mxCell>
        <mxCell id="IJfKlmuMN-XNazfKIvlV-25" value="" style="shape=flexArrow;endArrow=classic;html=1;rounded=0;" edge="1" parent="1">
          <mxGeometry width="50" height="50" relative="1" as="geometry">
            <mxPoint x="490" y="2487.13" as="sourcePoint" />
            <mxPoint x="445" y="2487.13" as="targetPoint" />
          </mxGeometry>
        </mxCell>
        <mxCell id="IJfKlmuMN-XNazfKIvlV-26" value="cni启动完成即可调度po" style="text;html=1;align=center;verticalAlign=middle;resizable=0;points=[];autosize=1;strokeColor=none;fillColor=none;" vertex="1" parent="1">
          <mxGeometry x="510" y="2474.5" width="143" height="26" as="geometry" />
        </mxCell>
      </root>
    </mxGraphModel>
  </diagram>
</mxfile>
